<svg width="89" height="29" viewBox="0 0 89 29" fill="none" xmlns="http://www.w3.org/2000/svg">
<path d="M0.323901 16.6531C0.73185 17.3735 5.57645 15.1332 13.4223 12.1068C17.9665 10.346 22.6295 8.90851 27.3763 7.80522C33.0831 6.49055 38.9468 5.9875 44.7941 6.31094C50.5842 6.67862 56.2579 8.10356 61.5346 10.5153C65.956 12.4881 70.1853 14.8661 74.1682 17.6188C77.0225 19.6038 79.325 21.4167 81.0947 22.8215C80.1982 22.8269 79.3197 22.84 78.4811 22.8673C76.3112 22.9377 74.3545 23.0789 72.7086 23.279C69.4167 23.6791 67.3677 24.3147 67.342 25.0909C67.3162 25.8672 69.3186 26.637 72.5768 27.2543C74.2058 27.5629 76.1489 27.8334 78.3094 28.0474C79.3896 28.1544 80.5242 28.2473 81.701 28.3238C82.2897 28.3573 82.8882 28.3914 83.4966 28.426L84.4153 28.4673C84.6071 28.4714 84.6183 28.4842 85.047 28.4821C85.348 28.4762 85.6472 28.434 85.9381 28.3565C86.4398 28.2234 86.9028 27.9731 87.2889 27.6262C87.6751 27.2793 87.9734 26.8458 88.1594 26.3611C88.2792 26.0508 88.3556 25.7255 88.3865 25.3943C88.4053 25.1981 88.4113 25.0009 88.4043 24.804L88.3884 24.4956C88.3644 24.1128 88.3251 23.741 88.2749 23.3815C88.1762 22.706 88.042 22.036 87.873 21.3745C87.5536 20.1278 87.223 19.0888 86.8958 18.042C86.2378 15.973 85.5697 14.1286 84.9295 12.5991C83.6491 9.5401 82.4802 7.74124 81.7262 7.92765C80.9723 8.11406 80.776 10.2503 81.0682 13.5535C81.2144 15.2051 81.4826 17.1485 81.8643 19.2857C81.9063 19.5048 81.9503 19.735 81.9931 19.9585C80.3399 18.0031 78.5432 16.1737 76.6181 14.4854C72.7111 11.0703 68.3883 8.16239 63.7525 5.83083C57.9754 2.85449 51.6446 1.10677 45.1588 0.697782C38.7402 0.330345 32.3052 1.03319 26.1173 2.77753C21.1567 4.17416 16.3556 6.08497 11.7919 8.4789C4.07807 12.5686 -0.0393254 16.0295 0.323901 16.6531Z" fill="#468E0D"/>
</svg>
