<svg width="12" height="20" viewBox="0 0 12 20" fill="none" xmlns="http://www.w3.org/2000/svg">
<path d="M4.44467 6.0783L4.39828 6.00503C4.50581 5.92199 4.64621 5.81331 4.79159 5.67843C4.8485 5.64622 4.89612 5.62016 4.94173 5.59804C4.95018 5.59394 4.95817 5.59018 4.96572 5.58673C4.96653 5.58914 4.96734 5.59155 4.96814 5.59396C5.24748 6.42647 5.51957 7.23739 5.82264 7.99C5.80107 7.94642 5.77943 7.90304 5.7578 7.85991C5.65413 7.65322 5.54914 7.44958 5.44612 7.24975C5.24759 6.86468 5.05637 6.49378 4.89597 6.14254L4.57548 6.2889C4.53219 6.21785 4.48857 6.14763 4.44467 6.0783ZM6.2751 9.00999C6.30707 9.07471 6.33948 9.13876 6.37234 9.20212C6.36385 9.20828 6.35545 9.21454 6.34717 9.22087C6.32541 9.15179 6.30126 9.08139 6.2751 9.00999ZM4.19099 4.43131C4.18448 4.43451 4.178 4.43774 4.17154 4.44097C4.15451 4.38925 4.13621 4.33685 4.11681 4.2839C4.14128 4.33343 4.166 4.38257 4.19099 4.43131ZM2.73767 1.41642L2.41718 1.56278C2.37388 1.49173 2.33027 1.42151 2.28637 1.35218L2.24842 1.29223L2.21923 1.26401C2.33858 1.18758 2.48419 1.08724 2.63178 0.953164C2.68936 0.920565 2.73741 0.894233 2.78343 0.871919C2.79188 0.867824 2.79986 0.864061 2.80742 0.860605C2.80822 0.863014 2.80903 0.865423 2.80984 0.867831C3.08918 1.70035 3.36127 2.51127 3.66434 3.26388C3.64277 3.2203 3.62113 3.17692 3.5995 3.13379C3.49583 2.9271 3.39084 2.72346 3.28781 2.52363C3.08929 2.13856 2.89807 1.76766 2.73767 1.41642ZM8.4726 13.8147C8.49179 13.8528 8.51113 13.8906 8.53064 13.9282C8.52639 13.9313 8.52216 13.9344 8.51796 13.9376C8.50332 13.8967 8.48818 13.8557 8.4726 13.8147ZM7.05427 10.8687L6.73085 11.0164C6.69059 10.9488 6.64975 10.881 6.60832 10.813L6.55977 10.7334C6.68372 10.6506 6.82456 10.5422 6.96667 10.3951C7.01629 10.3672 7.05898 10.3441 7.10004 10.3242C7.10848 10.3201 7.11647 10.3163 7.12402 10.3128C7.12483 10.3153 7.12564 10.3177 7.12645 10.3201C7.41064 11.1671 7.68732 11.9917 7.99676 12.7553C7.98375 12.7291 7.97069 12.703 7.95761 12.6769C7.86168 12.4857 7.7643 12.2964 7.66695 12.1072C7.45778 11.7007 7.24871 11.2944 7.05427 10.8687ZM8.71613 15.4563C8.82344 15.3734 8.96323 15.2651 9.10798 15.1309C9.16245 15.1002 9.20316 15.0785 9.24127 15.0616C9.26657 15.0504 9.28343 15.0448 9.29349 15.0419C9.29691 15.044 9.30117 15.0469 9.30627 15.0505C9.56806 15.8622 9.83921 16.6943 10.168 17.5074C10.1507 17.4726 10.1333 17.4378 10.1159 17.403C10.02 17.2118 9.92261 17.0225 9.82526 16.8334C9.61608 16.4269 9.40701 16.0205 9.21258 15.5948L8.88916 15.7425C8.84889 15.6749 8.80805 15.6071 8.76662 15.5391L8.71613 15.4563ZM10.7295 18.7454C10.7228 18.7502 10.7162 18.7549 10.7097 18.7597C10.6889 18.6982 10.6668 18.6365 10.6437 18.5747C10.6719 18.6318 10.7005 18.6887 10.7295 18.7454Z" fill="white" stroke="white" stroke-width="1.18841"/>
</svg>
