<svg width="12" height="21" viewBox="0 0 12 21" fill="none" xmlns="http://www.w3.org/2000/svg">
<path d="M4.29026 6.71453L4.24387 6.64126C4.35139 6.55822 4.49179 6.44954 4.63718 6.31466C4.69408 6.28245 4.7417 6.25639 4.78732 6.23427C4.79576 6.23017 4.80375 6.22641 4.8113 6.22296C4.81211 6.22537 4.81292 6.22778 4.81373 6.23019C5.09306 7.0627 5.36515 7.87362 5.66822 8.62623C5.64665 8.58265 5.62501 8.53927 5.60338 8.49614C5.49971 8.28945 5.39472 8.08581 5.2917 7.88598C5.09317 7.50091 4.90196 7.13001 4.74155 6.77877L4.42106 6.92513C4.37777 6.85408 4.33415 6.78386 4.29026 6.71453ZM6.12068 9.64622C6.15266 9.71094 6.18506 9.77499 6.21792 9.83835C6.20943 9.84451 6.20104 9.85077 6.19275 9.8571C6.171 9.78802 6.14684 9.71762 6.12068 9.64622ZM4.03658 5.06754C4.03006 5.07074 4.02358 5.07397 4.01712 5.0772C4.00009 5.02548 3.98179 4.97308 3.96239 4.92013C3.98686 4.96966 4.01158 5.0188 4.03658 5.06754ZM2.58325 2.05265L2.26276 2.19901C2.21947 2.12796 2.17585 2.05774 2.13195 1.98841L2.094 1.92846L2.06481 1.90024C2.18416 1.82381 2.32977 1.72347 2.47736 1.58939C2.53494 1.5568 2.583 1.53046 2.62901 1.50815C2.63746 1.50405 2.64545 1.50029 2.653 1.49684C2.65381 1.49924 2.65461 1.50165 2.65542 1.50406C2.93476 2.33658 3.20685 3.1475 3.50992 3.90011C3.48835 3.85653 3.46671 3.81315 3.44508 3.77002C3.34141 3.56333 3.23642 3.35969 3.1334 3.15986C2.93487 2.77479 2.74365 2.40389 2.58325 2.05265ZM8.31818 14.4509C8.33737 14.489 8.35672 14.5269 8.37623 14.5645C8.37197 14.5676 8.36774 14.5707 8.36354 14.5738C8.3489 14.5329 8.33377 14.4919 8.31818 14.4509ZM6.89985 11.5049L6.57643 11.6526C6.53617 11.585 6.49533 11.5172 6.4539 11.4492L6.40535 11.3696C6.52931 11.2869 6.67015 11.1784 6.81225 11.0313C6.86187 11.0034 6.90456 10.9803 6.94562 10.9604C6.95406 10.9563 6.96205 10.9525 6.9696 10.9491C6.97041 10.9515 6.97122 10.9539 6.97203 10.9563C7.25622 11.8033 7.5329 12.6279 7.84234 13.3915C7.82933 13.3654 7.81627 13.3392 7.80319 13.3131C7.70726 13.1219 7.60988 12.9326 7.51253 12.7435C7.30336 12.337 7.09429 11.9307 6.89985 11.5049ZM8.56171 16.0925C8.66902 16.0097 8.80881 15.9014 8.95356 15.7671C9.00803 15.7365 9.04874 15.7148 9.08685 15.6979C9.11215 15.6867 9.12901 15.681 9.13907 15.6782C9.14249 15.6803 9.14676 15.6831 9.15185 15.6867C9.41364 16.4984 9.68479 17.3305 10.0136 18.1436C9.99628 18.1088 9.97891 18.074 9.96149 18.0393C9.86556 17.848 9.76819 17.6588 9.67084 17.4696C9.46167 17.0631 9.25259 16.6568 9.05816 16.231L8.73474 16.3787C8.69447 16.3111 8.65363 16.2433 8.6122 16.1754L8.56171 16.0925ZM10.5751 19.3817C10.5684 19.3864 10.5618 19.3912 10.5553 19.3959C10.5344 19.3344 10.5124 19.2727 10.4892 19.2109C10.5175 19.268 10.5461 19.3249 10.5751 19.3817Z" fill="white" stroke="white" stroke-width="1.18841"/>
</svg>
