<svg width="18" height="16" viewBox="0 0 18 16" fill="none" xmlns="http://www.w3.org/2000/svg">
<g clip-path="url(#clip0_84906_683)">
<path d="M14.7741 1.08723L2.21557 13.6458C1.78208 14.0792 1.78208 14.7821 2.21557 15.2156C2.64906 15.6491 3.35189 15.6491 3.78539 15.2156L16.3439 2.65705C16.7774 2.22356 16.7774 1.52072 16.3439 1.08723C15.9104 0.65374 15.2076 0.65374 14.7741 1.08723Z" fill="white"/>
<path d="M15.8835 13.3434L3.32495 0.784908C2.89145 0.351415 2.18862 0.351415 1.75513 0.784908C1.32164 1.2184 1.32164 1.92123 1.75513 2.35472L14.3137 14.9132C14.7471 15.3467 15.45 15.3467 15.8835 14.9132C16.317 14.4798 16.317 13.7769 15.8835 13.3434Z" fill="white"/>
</g>
<defs>
<clipPath id="clip0_84906_683">
<rect width="16.1586" height="16.0005" fill="white" transform="translate(0.970215)"/>
</clipPath>
</defs>
</svg>
